<svg clip-rule="evenodd" fill-rule="evenodd" stroke-linejoin="round" stroke-miterlimit="2" viewBox="0 0 560 400" xmlns="http://www.w3.org/2000/svg"><path d="m0 24c0-13.232 10.738-24 23.934-24s23.935 10.768 23.935 24-10.739 24-23.935 24-23.934-10.768-23.934-24zm2.488 0c0 11.86 9.618 21.512 21.446 21.512s21.453-9.652 21.459-21.512c0-11.86-9.625-21.512-21.453-21.512s-21.452 9.652-21.452 21.512zm26.25 6.503h1.042c.444 0 .806.345.806.772 0 .428-.368.773-.812.773h-11.727c-.45 0-.812-.345-.812-.773 0-.427.362-.772.812-.772h4.863v-1.692h-4.762c-.445 0-.812-.345-.812-.766 0-.428.367-.773.812-.773h4.762v-1.175h-4.762c-.445 0-.812-.345-.812-.773 0-.421.367-.766.812-.766h11.52c.45 0 .811.345.811.766 0 .428-.367.773-.811.773h-4.739v1.175h4.739c.45 0 .811.345.811.773 0 .421-.367.766-.811.766h-.93zm-3.809 0h1.866v-1.692h-1.866zm-.805-10.969h-.403c-.444 0-.805.362-.805.813v.933h-4.762c-.812 0-.818.814-.818.814 0-.006.006 1.271.006 1.271 0 .445.361.813.812.813h.396c.445 0 .812-.362.812-.813v-.547h9.109v.529c0 .451.362.813.806.813h.397c.444 0 .811-.362.811-.813v-1.253c0-.006-.006-.808-.811-.808h-4.739v-.933c-.006-.457-.373-.819-.811-.819zm6.16-2.584.106.054c.456.269.485.723.49.815.001.009.001.015.002.016-.048.909-.918.98-1.191.897-.669-.142-2.92-1.146-4.756-3.546v2.798c0 .451-.361.813-.805.813h-.403c-.444 0-.806-.362-.806-.813v-2.798c-1.836 2.4-4.08 3.404-4.756 3.546-.266.083-1.143.012-1.19-.897v-.001c-.001-.03-.008-.533.486-.824.029-.018.065-.036.106-.054 1.428-.623 2.737-1.954 2.737-1.954h-1.842c-.605 0-1.096-.493-1.096-1.104v-4.384c0-.605.486-1.098 1.096-1.098h4.454v-.974h-4.857c-.45 0-.812-.345-.812-.772 0-.428.368-.772.812-.772h4.857v-.802c0-.452.361-.814.805-.814h.403c.438 0 .805.368.805.814v.796h4.851c.45 0 .812.35.812.772 0 .427-.368.772-.812.772h-4.851v.974h4.448c.61 0 1.102.493 1.102 1.099v4.383c0 .611-.492 1.104-1.102 1.104h-1.83s1.309 1.331 2.737 1.954zm-9.85-5.974h2.476v-1.022h-3.305c-.202 0-.356.148-.356.35v2.804c0 .196.131.356.356.356h3.305v-.95h-2.476c-.444 0-.812-.345-.812-.772 0-.422.368-.766.812-.766zm4.495 1.532v.944h3.311c.225 0 .344-.172.344-.35v-2.809c0-.179-.166-.351-.344-.351h-3.311v1.028h2.47c.45 0 .812.344.812.766 0 .427-.368.772-.812.772zm67.325-.891c-6.746 0-12.212 5.547-12.212 12.383 0 6.842 5.466 12.383 12.212 12.383 6.747 0 12.213-5.547 12.213-12.383.006-6.842-5.461-12.383-12.213-12.383zm.048 23.531c-4.952 0-8.973-4.989-8.973-11.148 0-6.153 4.015-11.148 8.973-11.148 4.951 0 8.973 4.989 8.973 11.148s-4.016 11.148-8.973 11.148zm43.266-11.148c0-6.836 5.473-12.383 12.219-12.383s12.219 5.541 12.213 12.383c0 6.836-5.467 12.383-12.213 12.383s-12.219-5.541-12.219-12.383zm3.293 0c0 6.159 4.022 11.148 8.973 11.148 4.952 0 8.974-4.989 8.968-11.148 0-6.159-4.016-11.148-8.968-11.148-4.957 0-8.973 4.995-8.973 11.148zm-15.245-10.845h.681c1.143 0 2.067.933 2.067 2.073v8.38h-12.681v-8.38c0-1.146.93-2.073 2.073-2.073h.675v-.665h-8.979v.665h.682c1.143 0 2.061.933 2.067 2.073v17.657c0 1.146-.93 2.073-2.073 2.073h-.682v.659h8.98v-.659h-.682c-1.137 0-2.061-.933-2.067-2.073v-7.869h12.681v7.863c0 1.146-.93 2.073-2.073 2.073h-.675v.659h8.979v-.659h-.681c-1.143 0-2.061-.933-2.067-2.073v-17.651c0-1.146.93-2.073 2.079-2.073h.675v-.665h-8.979zm-67.988 4.437.627-5.102h19.972l.628 5.102h-.545s-1.297-3.736-2.902-3.736h-5.437v19.035c.006 1.134.924 2.061 2.061 2.061h.942v.659h-9.465v-.659h.942c1.137 0 2.061-.921 2.061-2.061v-19.035h-5.574c-1.954 0-2.766 3.736-2.766 3.736z" fill="#003692" transform="matrix(2.25 0 0 2.25 100 146)"/></svg>